# xmcd
#
# Track frame offsets:
#	150
#	18075
#	36349
#	53757
#	71147
#	89081
#	109642
#	126520
#	141653
#	156735
#	173891
#	192092
#	207142
#	223185
#	241927
#
# Disc length: 3416
#
# Revision: 2
# Processed by: cddbd v1.5.1PL0 Copyright (c) Steve Scherf et al.
# Submitted via: audiograbber 1.82.02
# Normalized: r1:DSETVAR1
#
DISCID=e90d560f
DTITLE=Various Artist - Hot Hits Country Vol. 88
DYEAR=1999
DGENRE=Country
TTITLE0=Reba McEntire - One Honest Heart
TTITLE1=Mark Wills - Wish You Were Here
TTITLE2=Terri Clark - Everytime I Cry
TTITLE3=Travis Tritt - Start The Car
TTITLE4=Martina McBride - Whatever You Say
TTITLE5=Steve Wariner - Two Teardrops
TTITLE6=Diamond Rio - I Know How The River Feels
TTITLE7=Clay Walker - She's Always Right
TTITLE8=SheDaisy - Little Good-Byes
TTITLE9=Brad Paisley - Who Needs Pictures
TTITLE10=Michael Peterson - Somethin' 'Bout A Sunday
TTITLE11=Chely Wright - Single White Female
TTITLE12=Joe Diffie - A Night To Remember
TTITLE13=Sammy Kershaw and Lorrie Morgan - Maybe Not Tonight
TTITLE14=Beverly Ellis - This Time A Diamond Won't Cut It
EXTD=
EXTT0=
EXTT1=
EXTT2=
EXTT3=
EXTT4=
EXTT5=
EXTT6=
EXTT7=
EXTT8=
EXTT9=
EXTT10=
EXTT11=
EXTT12=
EXTT13=
EXTT14=
PLAYORDER=
